<?xml version="1.0" encoding="UTF-8"?>
<svg version="1.1" xmlns="http://www.w3.org/2000/svg" width="436" height="512">
<path d="M0 0 C1.20740982 -0.00384115 2.41481965 -0.00768229 3.65881765 -0.01163983 C4.99521985 -0.01085965 6.33162199 -0.00998088 7.66802406 -0.00901413 C9.09040743 -0.01159867 10.51279008 -0.01461208 11.93517172 -0.01801753 C15.8439073 -0.02608007 19.75262451 -0.02787668 23.66136742 -0.028615 C27.8768634 -0.0304668 32.09234987 -0.03801468 36.30784035 -0.04475021 C45.52466117 -0.05832778 54.74147763 -0.06435708 63.95830679 -0.06876087 C69.7125155 -0.07152372 75.46672253 -0.0757611 81.2209301 -0.08026505 C97.15113087 -0.09245592 113.08133031 -0.10275627 129.01153564 -0.10614014 C130.54061966 -0.10646949 130.54061966 -0.10646949 132.10059426 -0.10680549 C133.1224226 -0.10702377 134.14425094 -0.10724204 135.19704378 -0.10746694 C137.26766229 -0.1079104 139.3382808 -0.10835697 141.40889931 -0.10880661 C142.43599772 -0.10902804 143.46309614 -0.10924947 144.52131875 -0.10947761 C161.17083101 -0.1134272 177.82029955 -0.13088693 194.46979491 -0.15416613 C211.56142631 -0.17787082 228.65303576 -0.19034155 245.74468386 -0.19150805 C255.34196138 -0.1924252 264.93918189 -0.19818767 274.53644371 -0.21632767 C282.7069686 -0.23171659 290.87741887 -0.23685619 299.0479555 -0.22858956 C303.21691225 -0.22467905 307.38571866 -0.22563223 311.55465698 -0.23964691 C315.37171749 -0.25236147 319.18851429 -0.25120998 323.0055743 -0.2390562 C325.03917265 -0.23616648 327.07277546 -0.24805334 329.1063379 -0.26047826 C335.52028884 -0.22562253 340.37634638 -0.0299327 346.01632118 3.13142776 C346.68921181 3.49623245 347.36210243 3.86103714 348.05538368 4.23689651 C353.99514948 8.28939682 357.63019528 13.37728086 359.13674641 20.46158218 C360.40530705 27.3273257 360.29684772 34.20364674 360.27701759 41.16145706 C360.28004227 42.67263954 360.28393334 44.18382048 360.28861016 45.69499874 C360.29885784 49.82610176 360.29671663 53.95711769 360.29242957 58.08822775 C360.28995651 62.55182542 360.2989836 67.01540243 360.30646706 71.47899246 C360.31919922 80.21468716 360.32100966 88.9503511 360.31866679 97.68605351 C360.3168821 104.78718231 360.31863652 111.88830179 360.32289124 118.98942947 C360.32348642 120.00096956 360.32408161 121.01250965 360.32469484 122.05470246 C360.32590661 124.10977181 360.32712075 126.16484116 360.32833721 128.2199105 C360.33920669 147.48006406 360.33705285 166.7402001 360.33095237 186.00035465 C360.32578169 203.61426991 360.3370437 221.22812989 360.35605059 238.84203422 C360.37542813 256.93842291 360.38368526 275.03478545 360.37992734 293.13118458 C360.37801543 303.28683225 360.38050202 313.44243285 360.39464188 323.59807205 C360.40655543 332.24196956 360.4079607 340.885791 360.39585171 349.52968955 C360.38996336 353.93802742 360.38886249 358.34622615 360.40085411 362.75455475 C360.41171349 366.79362451 360.40860898 370.83243898 360.39459243 374.8714968 C360.39194569 376.32897035 360.39431131 377.78646392 360.40232829 379.24391782 C360.50519773 399.34788117 360.50519773 399.34788117 353.64132118 406.56892776 C353.07671181 407.1863887 352.51210243 407.80384964 351.93038368 408.44002151 C350.01632118 410.13142776 350.01632118 410.13142776 347.48897743 411.48299026 C341.92310842 415.19356961 339.78050557 423.12539441 338.19210243 429.37361526 C336.09537568 441.06175163 336.41444501 453.40139697 341.55147743 464.33455276 C343.96583443 467.29616401 346.99604605 467.66420042 350.60616493 468.48299026 C354.28573319 469.47295514 355.86098157 471.03312707 358.01632118 474.13142776 C361.02766398 481.47794039 359.99742769 488.37062919 357.00850868 495.55330276 C353.12001252 503.22728857 347.61168556 507.93096766 339.75385213 511.30159283 C334.2521061 512.96935154 328.60158211 512.67820682 322.89946938 512.63936234 C321.47520487 512.64397696 320.05094514 512.65033364 318.62669528 512.65827131 C314.73091322 512.6749121 310.835525 512.66674229 306.93974185 512.65432644 C302.73095823 512.64525614 298.52224114 512.65925581 294.31347084 512.67024612 C286.07390226 512.68801761 277.83447956 512.68419667 269.5949053 512.67259556 C262.89376787 512.66355244 256.19267125 512.66234105 249.49152946 512.66669083 C248.53680473 512.66730376 247.58207999 512.66791669 246.5984242 512.6685482 C244.65868197 512.66982715 242.71893974 512.671124 240.77919753 512.67243856 C222.5947417 512.6838413 204.41036656 512.67073737 186.22592397 512.6492371 C170.64413438 512.63138362 155.06246407 512.63445637 139.48067665 512.65291214 C121.36943716 512.67435399 103.25826849 512.68272458 85.14701807 512.67046309 C83.21268122 512.66918896 81.27834436 512.66793147 79.34400749 512.66669083 C78.39239091 512.66607372 77.44077433 512.66545662 76.46032088 512.66482082 C69.77518788 512.66137657 63.0901 512.66717664 56.40497398 512.67660904 C48.24608401 512.68786805 40.08734783 512.68470811 31.92847531 512.66348606 C27.7706214 512.65302522 23.61302319 512.64876796 19.45517159 512.66208267 C15.638996 512.67411757 11.8233099 512.66726432 8.0071779 512.64617246 C5.993611 512.63968005 3.98000934 512.65254301 1.96647966 512.66640139 C-18.7801327 512.49039869 -37.64586322 504.48814063 -52.83133507 490.37361526 C-71.84358827 470.56774714 -76.14961871 447.80237195 -76.11739159 421.40788651 C-76.11926321 419.94207915 -76.1215653 418.4762723 -76.12425691 417.01046622 C-76.13033798 413.00917346 -76.1302457 409.00790171 -76.12906253 405.00660539 C-76.12885759 400.68059487 -76.13438625 396.35459094 -76.1391201 392.02858353 C-76.1474071 383.56273437 -76.15017407 375.09689218 -76.15073248 366.63103931 C-76.1512086 359.74500471 -76.15326813 352.85897241 -76.15643311 345.97293854 C-76.16523461 326.42388317 -76.16985331 306.87483327 -76.16910263 287.32577591 C-76.16906268 286.27309122 -76.16902272 285.22040652 -76.16898155 284.1358223 C-76.16894067 283.08184323 -76.16889979 282.02786417 -76.16885767 280.94194634 C-76.16845142 263.86955789 -76.17801707 246.79719152 -76.19211992 229.72480945 C-76.20650645 212.16963491 -76.21338884 194.61447111 -76.21252614 177.05929053 C-76.21219494 167.21364066 -76.21490812 157.36801393 -76.22570419 147.52236938 C-76.23483923 139.13818944 -76.23695991 130.75404312 -76.23019477 122.36986034 C-76.22694458 118.09839225 -76.22681814 113.82698857 -76.23554802 109.55552673 C-76.243481 105.63337395 -76.24191327 101.71133593 -76.23326389 97.78918572 C-76.2317437 96.3820876 -76.23348801 94.97498061 -76.23912396 93.56789295 C-76.26725626 86.03601376 -75.94992425 78.62395015 -75.10103893 71.14405632 C-75.02457108 70.45737689 -74.94810323 69.77069746 -74.86931817 69.06320956 C-72.41397103 49.30013114 -61.38307474 30.64665646 -46.23367882 17.88142776 C-32.90783724 7.89742496 -16.98310336 0.02030959 0 0 Z " fill="#B15831" transform="translate(75.98367881774902,-0.13142776489257813)"/>
<path d="M0 0 C1.20740982 -0.00384115 2.41481965 -0.00768229 3.65881765 -0.01163983 C4.99521985 -0.01085965 6.33162199 -0.00998088 7.66802406 -0.00901413 C9.09040743 -0.01159867 10.51279008 -0.01461208 11.93517172 -0.01801753 C15.8439073 -0.02608007 19.75262451 -0.02787668 23.66136742 -0.028615 C27.8768634 -0.0304668 32.09234987 -0.03801468 36.30784035 -0.04475021 C45.52466117 -0.05832778 54.74147763 -0.06435708 63.95830679 -0.06876087 C69.7125155 -0.07152372 75.46672253 -0.0757611 81.2209301 -0.08026505 C97.15113087 -0.09245592 113.08133031 -0.10275627 129.01153564 -0.10614014 C130.54061966 -0.10646949 130.54061966 -0.10646949 132.10059426 -0.10680549 C133.1224226 -0.10702377 134.14425094 -0.10724204 135.19704378 -0.10746694 C137.26766229 -0.1079104 139.3382808 -0.10835697 141.40889931 -0.10880661 C142.43599772 -0.10902804 143.46309614 -0.10924947 144.52131875 -0.10947761 C161.17083101 -0.1134272 177.82029955 -0.13088693 194.46979491 -0.15416613 C211.56142631 -0.17787082 228.65303576 -0.19034155 245.74468386 -0.19150805 C255.34196138 -0.1924252 264.93918189 -0.19818767 274.53644371 -0.21632767 C282.7069686 -0.23171659 290.87741887 -0.23685619 299.0479555 -0.22858956 C303.21691225 -0.22467905 307.38571866 -0.22563223 311.55465698 -0.23964691 C315.37171749 -0.25236147 319.18851429 -0.25120998 323.0055743 -0.2390562 C325.03917265 -0.23616648 327.07277546 -0.24805334 329.1063379 -0.26047826 C335.52028884 -0.22562253 340.37634638 -0.0299327 346.01632118 3.13142776 C346.68921181 3.49623245 347.36210243 3.86103714 348.05538368 4.23689651 C353.99514948 8.28939682 357.63019528 13.37728086 359.13674641 20.46158218 C360.40530705 27.3273257 360.29684772 34.20364674 360.27701759 41.16145706 C360.28004227 42.67263954 360.28393334 44.18382048 360.28861016 45.69499874 C360.29885784 49.82610176 360.29671663 53.95711769 360.29242957 58.08822775 C360.28995651 62.55182542 360.2989836 67.01540243 360.30646706 71.47899246 C360.31919922 80.21468716 360.32100966 88.9503511 360.31866679 97.68605351 C360.3168821 104.78718231 360.31863652 111.88830179 360.32289124 118.98942947 C360.32348642 120.00096956 360.32408161 121.01250965 360.32469484 122.05470246 C360.32590661 124.10977181 360.32712075 126.16484116 360.32833721 128.2199105 C360.33920669 147.48006406 360.33705285 166.7402001 360.33095237 186.00035465 C360.32578169 203.61426991 360.3370437 221.22812989 360.35605059 238.84203422 C360.37542813 256.93842291 360.38368526 275.03478545 360.37992734 293.13118458 C360.37801543 303.28683225 360.38050202 313.44243285 360.39464188 323.59807205 C360.40655543 332.24196956 360.4079607 340.885791 360.39585171 349.52968955 C360.38996336 353.93802742 360.38886249 358.34622615 360.40085411 362.75455475 C360.41171349 366.79362451 360.40860898 370.83243898 360.39459243 374.8714968 C360.39194569 376.32897035 360.39431131 377.78646392 360.40232829 379.24391782 C360.50519773 399.34788117 360.50519773 399.34788117 353.64132118 406.56892776 C353.07671181 407.1863887 352.51210243 407.80384964 351.93038368 408.44002151 C350.01632118 410.13142776 350.01632118 410.13142776 347.48897743 411.48299026 C341.92310842 415.19356961 339.78050557 423.12539441 338.19210243 429.37361526 C336.09537568 441.06175163 336.41444501 453.40139697 341.55147743 464.33455276 C343.96583443 467.29616401 346.99604605 467.66420042 350.60616493 468.48299026 C354.28573319 469.47295514 355.86098157 471.03312707 358.01632118 474.13142776 C361.02766398 481.47794039 359.99742769 488.37062919 357.00850868 495.55330276 C353.12001252 503.22728857 347.61168556 507.93096766 339.75385213 511.30159283 C334.2521061 512.96935154 328.60158211 512.67820682 322.89946938 512.63936234 C321.47520487 512.64397696 320.05094514 512.65033364 318.62669528 512.65827131 C314.73091322 512.6749121 310.835525 512.66674229 306.93974185 512.65432644 C302.73095823 512.64525614 298.52224114 512.65925581 294.31347084 512.67024612 C286.07390226 512.68801761 277.83447956 512.68419667 269.5949053 512.67259556 C262.89376787 512.66355244 256.19267125 512.66234105 249.49152946 512.66669083 C248.53680473 512.66730376 247.58207999 512.66791669 246.5984242 512.6685482 C244.65868197 512.66982715 242.71893974 512.671124 240.77919753 512.67243856 C222.5947417 512.6838413 204.41036656 512.67073737 186.22592397 512.6492371 C170.64413438 512.63138362 155.06246407 512.63445637 139.48067665 512.65291214 C121.36943716 512.67435399 103.25826849 512.68272458 85.14701807 512.67046309 C83.21268122 512.66918896 81.27834436 512.66793147 79.34400749 512.66669083 C78.39239091 512.66607372 77.44077433 512.66545662 76.46032088 512.66482082 C69.77518788 512.66137657 63.0901 512.66717664 56.40497398 512.67660904 C48.24608401 512.68786805 40.08734783 512.68470811 31.92847531 512.66348606 C27.7706214 512.65302522 23.61302319 512.64876796 19.45517159 512.66208267 C15.638996 512.67411757 11.8233099 512.66726432 8.0071779 512.64617246 C5.993611 512.63968005 3.98000934 512.65254301 1.96647966 512.66640139 C-18.7801327 512.49039869 -37.64586322 504.48814063 -52.83133507 490.37361526 C-71.84358827 470.56774714 -76.14961871 447.80237195 -76.11739159 421.40788651 C-76.11926321 419.94207915 -76.1215653 418.4762723 -76.12425691 417.01046622 C-76.13033798 413.00917346 -76.1302457 409.00790171 -76.12906253 405.00660539 C-76.12885759 400.68059487 -76.13438625 396.35459094 -76.1391201 392.02858353 C-76.1474071 383.56273437 -76.15017407 375.09689218 -76.15073248 366.63103931 C-76.1512086 359.74500471 -76.15326813 352.85897241 -76.15643311 345.97293854 C-76.16523461 326.42388317 -76.16985331 306.87483327 -76.16910263 287.32577591 C-76.16906268 286.27309122 -76.16902272 285.22040652 -76.16898155 284.1358223 C-76.16894067 283.08184323 -76.16889979 282.02786417 -76.16885767 280.94194634 C-76.16845142 263.86955789 -76.17801707 246.79719152 -76.19211992 229.72480945 C-76.20650645 212.16963491 -76.21338884 194.61447111 -76.21252614 177.05929053 C-76.21219494 167.21364066 -76.21490812 157.36801393 -76.22570419 147.52236938 C-76.23483923 139.13818944 -76.23695991 130.75404312 -76.23019477 122.36986034 C-76.22694458 118.09839225 -76.22681814 113.82698857 -76.23554802 109.55552673 C-76.243481 105.63337395 -76.24191327 101.71133593 -76.23326389 97.78918572 C-76.2317437 96.3820876 -76.23348801 94.97498061 -76.23912396 93.56789295 C-76.26725626 86.03601376 -75.94992425 78.62395015 -75.10103893 71.14405632 C-75.02457108 70.45737689 -74.94810323 69.77069746 -74.86931817 69.06320956 C-72.41397103 49.30013114 -61.38307474 30.64665646 -46.23367882 17.88142776 C-32.90783724 7.89742496 -16.98310336 0.02030959 0 0 Z M-23.29617882 19.88142776 C-23.96641075 20.23068314 -24.63664268 20.57993851 -25.32718468 20.93977737 C-30.67663356 23.80141183 -35.4759588 27.05479947 -39.98367882 31.13142776 C-40.59340538 31.66123245 -41.20313194 32.19103714 -41.83133507 32.73689651 C-46.96380043 37.485837 -50.42472048 43.15872045 -53.98367882 49.13142776 C-54.76098351 50.33605667 -54.76098351 50.33605667 -55.55399132 51.56502151 C-57.18990964 54.50162899 -58.14569112 57.35012242 -59.10867882 60.56892776 C-59.44125694 61.6607637 -59.77383507 62.75259964 -60.11649132 63.87752151 C-61.52599031 69.16631729 -62.10897565 74.12885436 -62.11510658 79.59900475 C-62.11894773 80.88892362 -62.12278887 82.17884249 -62.12674642 83.50784981 C-62.12596626 84.93219071 -62.12508749 86.35653156 -62.12412071 87.78087234 C-62.12670575 89.29955046 -62.1297193 90.8182279 -62.13312411 92.33690441 C-62.14118108 96.5073651 -62.14298296 100.67780858 -62.14372158 104.84827614 C-62.14557441 109.34742442 -62.15312292 113.84656381 -62.1598568 118.34570694 C-62.17343149 128.18261928 -62.17946352 138.01952755 -62.18386745 147.8564477 C-62.18663139 154.00049583 -62.19086903 160.1445424 -62.19537163 166.28858948 C-62.20756327 183.30484099 -62.21786273 200.32109125 -62.22124672 217.33734703 C-62.22146629 218.42616611 -62.22168585 219.51498519 -62.22191207 220.63679879 C-62.22213035 221.72820049 -62.22234863 222.81960218 -62.22257352 223.94407666 C-62.22301698 226.15561557 -62.22346355 228.36715448 -62.22391319 230.57869339 C-62.22413462 231.67568951 -62.22435605 232.77268562 -62.22458419 233.90292405 C-62.22853136 251.67416926 -62.24598338 269.44537345 -62.26927271 287.21660282 C-62.29299899 305.46881264 -62.30544916 323.72100189 -62.30661464 341.97322738 C-62.30753069 352.21842869 -62.31326545 362.46357655 -62.33143425 372.70876312 C-62.34685246 381.43357619 -62.35194554 390.15831928 -62.34369615 398.88314338 C-62.33979572 403.33220986 -62.34068951 407.7811355 -62.35475349 412.23018456 C-62.36752881 416.30898731 -62.36626322 420.3875439 -62.35416278 424.46634649 C-62.35221205 425.93609065 -62.35525517 427.40585247 -62.36400715 428.87557186 C-62.47824734 449.36961934 -56.2601305 466.20604335 -42.29617882 481.31892776 C-35.28041791 488.04409503 -26.30687459 493.38634105 -16.98367882 496.13142776 C-15.74179587 496.50716274 -15.74179587 496.50716274 -14.47482437 496.89048833 C-6.46490568 499.11797036 0.97330083 499.55349678 9.25751686 499.50564957 C10.65849564 499.50839611 12.05947236 499.51245326 13.46044403 499.51769322 C17.27749315 499.52820107 21.09430539 499.52020305 24.91134393 499.50894272 C29.04011148 499.50005279 33.16884963 499.50855778 37.29761696 499.51480484 C45.37097561 499.52426532 53.44424452 499.51771816 61.51759648 499.5055419 C70.92165284 499.49188895 80.32568808 499.49356252 89.72975183 499.49567523 C106.50522498 499.49886078 123.28065557 499.48721995 140.0561161 499.46760941 C156.33379854 499.44858579 172.61143116 499.44152795 188.88912392 499.44710159 C206.6263518 499.45315705 224.36355782 499.45298822 242.10078388 499.44161576 C243.99108223 499.44040848 245.88138058 499.4392025 247.77167892 499.43799782 C248.70170478 499.43739428 249.63173064 499.43679074 250.5899391 499.43616891 C257.14603929 499.43228848 263.70213133 499.43268379 270.25823212 499.43458366 C278.24162742 499.43670387 286.22497909 499.43149416 294.2083621 499.41697011 C298.28189533 499.4097193 302.35536495 499.40565505 306.42890358 499.41021347 C310.15610542 499.414283 313.88317578 499.40914414 317.61035765 499.39658739 C319.60035076 499.39226253 321.5903577 499.39775737 323.580347 499.40357667 C324.76028956 499.39774448 325.94023212 499.39191229 327.15593052 499.38590336 C328.68347097 499.38460319 328.68347097 499.38460319 330.24187082 499.38327676 C336.06341014 498.85483017 339.24254999 496.50105757 343.01632118 492.13142776 C345.39705527 488.19090238 346.16219496 485.67654768 346.01632118 481.13142776 C344.90795896 481.13110171 344.90795896 481.13110171 343.77720559 481.13076907 C299.9784208 481.11725169 256.1797254 481.07776306 212.38099761 481.00457214 C207.12141827 480.99580545 201.86183859 480.98725563 196.60225868 480.97883987 C195.03163466 480.97632128 195.03163466 480.97632128 193.42928086 480.97375181 C176.47756589 480.9470858 159.52588473 480.93798701 142.57415093 480.93538634 C125.17864447 480.93232632 107.78323573 480.91037403 90.38777339 480.87090319 C79.65478682 480.84714458 68.92199536 480.83810214 58.18898611 480.84791466 C50.82782865 480.85323252 43.46684595 480.84019082 36.10573824 480.81276486 C31.85941407 480.79748446 27.61348106 480.79024832 23.36714554 480.80483055 C19.47551908 480.81801562 15.58464942 480.80802256 11.69310795 480.77999004 C10.28918162 480.77389733 8.88518767 480.77613782 7.48129655 480.7877985 C-3.42398571 480.8712531 -10.98275288 478.91723224 -19.17117882 471.56892776 C-23.74229928 466.66468921 -26.96883484 461.08933371 -29.98367882 455.13142776 C-30.34719444 454.42631058 -30.71071007 453.72119339 -31.08524132 452.99470901 C-34.49572565 444.88285609 -34.32305217 433.71593359 -32.29227257 425.24861526 C-31.3652206 423.02213899 -30.32113164 421.13552373 -28.98367882 419.13142776 C-28.55957726 418.4392012 -28.13547569 417.74697464 -27.69852257 417.03377151 C-22.58708829 409.41645302 -14.85841245 404.40013622 -5.98367882 402.13142776 C-1.41982324 401.69736094 3.12317801 401.72394318 7.7048893 401.7461586 C9.09472881 401.74214763 10.48456503 401.73681903 11.87439501 401.73029286 C15.67941232 401.71617909 19.48421537 401.72056093 23.28924322 401.72800601 C27.39841995 401.73275377 31.50754789 401.72017528 35.61670876 401.70964432 C42.73366423 401.69368066 49.85056281 401.68839228 56.96753502 401.6901722 C67.26830391 401.69255806 77.56898206 401.67655213 87.86972721 401.65571965 C104.59729618 401.62220317 121.32485702 401.6005357 138.05245399 401.58772659 C139.05314406 401.5869571 140.05383412 401.58618761 141.08484812 401.58539481 C145.13932111 401.58229261 149.19379411 401.57920979 153.24826714 401.57615476 C164.40532883 401.56762667 175.56238769 401.5567248 186.71944618 401.54475784 C188.21773872 401.54315581 188.21773872 401.54315581 189.74629979 401.54152142 C206.40977692 401.52341971 223.07323473 401.49742222 239.73669302 401.4666267 C250.00952016 401.44808953 260.28230391 401.43715799 270.55514802 401.43610478 C277.59565699 401.43500003 284.63613623 401.42703764 291.67663263 401.41372114 C295.73658112 401.40631424 299.79646454 401.40219799 303.85641861 401.40683937 C307.57725491 401.41105228 311.29796398 401.40605468 315.01878186 401.39393152 C316.99334054 401.38987841 318.96791194 401.39561985 320.94246519 401.40177721 C332.89406336 401.6394378 332.89406336 401.6394378 343.57882118 397.19392776 C346.15158921 393.50256495 346.14285094 390.40727318 346.14774895 386.03185177 C346.15159009 384.74768924 346.15543124 383.46352672 346.15938878 382.14045018 C346.15860849 380.70707868 346.15772969 379.27370723 346.15676308 377.84033585 C346.15934591 376.32409553 346.16235884 374.8078559 346.16576648 373.29161721 C346.17384929 369.11419637 346.17562676 364.9367927 346.17636395 360.75936496 C346.17821227 356.25823369 346.18575846 351.75711137 346.19249916 347.25598526 C346.20609187 337.40896787 346.2121086 327.56195455 346.21650982 317.71492934 C346.21927053 311.56910157 346.22350755 305.42327537 346.22801399 299.27744865 C346.24020764 282.26902712 346.25050692 265.26060686 346.25388908 248.25218105 C346.25410865 247.16321485 346.25432822 246.07424864 346.25455444 244.95228346 C346.25477271 243.86067966 346.25499099 242.76907585 346.25521588 241.64439315 C346.25565935 239.43230768 346.25610592 237.22022221 346.25655556 235.00813675 C346.25677699 233.91086088 346.25699842 232.81358501 346.25722656 231.68305836 C346.26117571 213.89786927 346.27863288 196.11272113 346.30191508 178.32754787 C346.32561318 160.07772202 346.33809022 141.82791672 346.339257 123.57807523 C346.34017461 113.32743146 346.34594839 103.07684103 346.36407661 92.82621193 C346.37945677 84.09859275 346.3846104 75.37104341 346.37633851 66.64341327 C346.37242467 62.18903536 346.37339732 57.73479817 346.38739586 53.28043747 C346.40009077 49.203679 346.39897628 45.12716763 346.38680515 41.05040971 C346.38484048 39.57462616 346.38796198 38.09882537 346.39664951 36.62306609 C346.40770545 34.61824832 346.39848369 32.61334936 346.38825798 30.60852718 C346.38885507 29.49453507 346.38945216 28.38054296 346.39006734 27.23279351 C345.80388641 22.36863254 344.09535965 19.12953835 340.51632118 15.81892776 C336.72414399 13.25920816 333.90716855 13.00550392 329.43884754 13 C327.68720713 12.99423828 327.68720713 12.99423828 325.90018004 12.98836017 C324.61110961 12.98922665 323.32203919 12.99009313 321.99390602 12.99098587 C320.61536078 12.98840278 319.2368163 12.98538978 317.85827285 12.98198247 C314.06114694 12.97390187 310.26403992 12.9721223 306.46690643 12.971385 C302.37462345 12.96953616 298.28235031 12.96198941 294.19007301 12.95524979 C285.23505214 12.94165583 276.28003573 12.93563937 267.32500625 12.93123913 C261.73122802 12.92847706 256.13745153 12.92423963 250.54367447 12.91973495 C235.05192327 12.90753818 219.56017345 12.89724144 204.06841755 12.89385986 C203.0764274 12.8936403 202.08443725 12.89342073 201.0623868 12.89319451 C200.06802501 12.89297623 199.07366321 12.89275796 198.04916924 12.89253306 C196.03423226 12.8920896 194.01929527 12.89164304 192.00435829 12.89119339 C191.00488058 12.89097196 190.00540287 12.89075053 188.97563795 12.89052239 C172.79955 12.88657886 156.62350723 12.86914028 140.44743671 12.84583387 C123.83383003 12.82209077 107.22024596 12.80965657 90.60662204 12.80849195 C81.28128178 12.80757656 71.9560003 12.80185907 62.63067627 12.78367233 C54.68501294 12.76823103 46.73942652 12.76317438 38.79375102 12.77141044 C34.74342987 12.77530345 30.69326339 12.77445392 26.6429615 12.76035309 C22.92599272 12.7475319 19.20929353 12.74888288 15.49232469 12.7609438 C13.52941881 12.76379858 11.5665079 12.75202728 9.60363978 12.73952174 C-1.85160439 12.80261553 -13.11294925 14.38718892 -23.29617882 19.88142776 Z " fill="#000000" transform="translate(75.98367881774902,-0.13142776489257813)"/>
<path d="M0 0 C15.84 0 31.68 0 48 0 C48 19.14 48 38.28 48 58 C69.78 58 91.56 58 114 58 C114 73.84 114 89.68 114 106 C92.22 106 70.44 106 48 106 C48 154.18 48 202.36 48 252 C32.16 252 16.32 252 0 252 C0 203.82 0 155.64 0 106 C-21.45 106 -42.9 106 -65 106 C-65 90.16 -65 74.32 -65 58 C-43.55 58 -22.1 58 0 58 C0 38.86 0 19.72 0 0 Z " fill="#EC9536" transform="translate(194,88)"/>
<path d="M0 0 C1.36396458 -0.00087308 2.72792882 -0.00262595 4.09189129 -0.00517833 C7.82497763 -0.00963572 11.55794851 -0.00167041 15.29102015 0.00837779 C19.32227359 0.01703326 23.35352077 0.01409065 27.38478088 0.01257324 C34.36425309 0.01152572 41.34368785 0.01778848 48.32315063 0.02904892 C58.41421535 0.0453189 68.50526199 0.05051346 78.59633839 0.0530249 C94.96934653 0.05739965 111.34233472 0.07070279 127.71533203 0.08963013 C143.61800029 0.10799462 159.52066312 0.12214834 175.42333984 0.13064575 C176.4039596 0.1311712 177.38457936 0.13169665 178.39491487 0.13223802 C183.3145092 0.13484813 188.23410357 0.13737554 193.15369797 0.13986182 C233.95176305 0.16058747 274.74980616 0.19580702 315.54785156 0.24050903 C315.07766347 2.69613291 314.62004654 5.03402393 313.79394531 7.39675903 C309.13928549 20.88852664 310.48017507 36.77291692 314.54785156 50.24050903 C314.88590348 51.57265384 315.22005114 52.90580466 315.54785156 54.24050903 C273.66104935 54.37784987 231.77427312 54.4835709 189.88729033 54.54690101 C184.94186832 54.55440523 179.99644674 54.56217116 175.05102539 54.57009888 C173.57421227 54.57245967 173.57421227 54.57245967 172.06756454 54.57486816 C156.12712142 54.60097422 140.18680817 54.64828069 124.24644209 54.70342581 C107.88947723 54.75954009 91.53258038 54.79286282 75.17552322 54.80504 C65.08272355 54.81327168 54.99029095 54.83926796 44.89760428 54.88800783 C37.97613971 54.91972997 31.05486484 54.92930818 24.13333286 54.9215173 C20.1401657 54.91767517 16.14763984 54.9235535 12.15458679 54.95574188 C8.49548973 54.98502232 4.83746281 54.98636361 1.17831563 54.9659024 C-0.76561783 54.9621819 -2.70953939 54.98798856 -4.65328878 55.01499689 C-12.50375749 54.93466386 -17.56195824 53.56942197 -23.45214844 48.24050903 C-26.33006181 44.85530245 -28.37612665 41.16188353 -30.45214844 37.24050903 C-30.814375 36.55859497 -31.17660156 35.87668091 -31.54980469 35.17410278 C-34.361922 28.908967 -34.61185439 21.53652668 -32.83105469 14.93972778 C-30.49449994 9.59161358 -26.4294481 5.24966079 -21.45214844 2.24050903 C-14.30301247 -0.08293296 -7.4708687 -0.03462941 0 0 Z " fill="#E4E4E4" transform="translate(88.4521484375,413.7594909667969)"/>
<path d="M0 0 C1.19569107 -0.0038269 2.39138214 -0.00765381 3.62330627 -0.01159668 C6.14739831 -0.01431396 8.6715186 -0.00696584 11.19555664 0.00976562 C15.04963303 0.0311569 18.90184117 0.00996511 22.75585938 -0.015625 C25.21224368 -0.01298133 27.66862683 -0.00785553 30.125 0 C31.84715981 -0.01214539 31.84715981 -0.01214539 33.60411072 -0.02453613 C40.09631116 0.05117078 44.53536193 0.31708345 49.62890625 4.53125 C53.23605875 10.29140588 53.02572009 15.84348996 52.921875 22.49609375 C52.91763016 23.52940323 52.91338531 24.56271271 52.90901184 25.62733459 C52.89230019 28.90807822 52.85466136 32.18819392 52.81640625 35.46875 C52.80134973 37.70116297 52.78766302 39.93358562 52.77539062 42.16601562 C52.74242135 47.62130581 52.69229712 53.07623302 52.62890625 58.53125 C53.31715485 58.52236755 54.00540344 58.51348511 54.71450806 58.5043335 C61.88462002 58.41576705 69.05457631 58.35547661 76.22509766 58.31152344 C78.90054 58.29368175 81.57512641 58.26413951 84.25048828 58.22949219 C88.09809196 58.18091494 91.94511412 58.15826635 95.79296875 58.140625 C96.98693268 58.11997986 98.18089661 58.09933472 99.41104126 58.07806396 C105.78422988 58.07634586 109.82568148 58.15730139 114.62890625 62.53125 C118.01003754 66.37874422 118.75176385 69.59944173 118.8059082 74.6418457 C118.82516106 76.20410637 118.82516106 76.20410637 118.84480286 77.79792786 C118.85218979 78.92293198 118.85957672 80.0479361 118.8671875 81.20703125 C118.87525925 82.36494675 118.88333099 83.52286224 118.89164734 84.71586609 C118.9054848 87.16790266 118.91620846 89.61995847 118.92407227 92.07202148 C118.94129052 95.81856822 118.98518201 99.56423386 119.02929688 103.31054688 C119.03942339 105.69270184 119.04793962 108.07486431 119.0546875 110.45703125 C119.07219559 111.57596268 119.08970367 112.6948941 119.10774231 113.84773254 C119.09039013 120.08122566 118.79715956 123.78416817 114.62890625 128.53125 C114.11328125 129.129375 113.59765625 129.7275 113.06640625 130.34375 C110.03455873 132.84831969 106.88917442 132.65318319 103.14770508 132.64477539 C102.02676956 132.64469986 100.90583405 132.64462433 99.75093079 132.64454651 C98.541483 132.63938522 97.33203522 132.63422394 96.0859375 132.62890625 C94.22783699 132.62678383 94.22783699 132.62678383 92.3321991 132.62461853 C89.04259088 132.61996602 85.75303165 132.6109839 82.46343994 132.59991455 C79.10519002 132.58967629 75.74693292 132.58511574 72.38867188 132.58007812 C65.80206413 132.56904145 59.2154892 132.55229767 52.62890625 132.53125 C52.63259342 133.23178057 52.63628059 133.93231113 52.6400795 134.6540699 C52.72844551 151.70538072 52.79462309 168.75663333 52.83615494 185.80812263 C52.85677367 194.05413159 52.88488098 202.29998763 52.93066406 210.54589844 C52.97055306 217.73366806 52.99634408 224.92132694 53.00526023 232.10920417 C53.01047154 235.91461834 53.02270525 239.71971568 53.05182648 243.52502823 C53.07902846 247.10867191 53.08734177 250.69186903 53.08133698 254.27560616 C53.08295768 256.21397224 53.10445552 258.15228998 53.12658691 260.0905304 C53.07520484 270.9393474 53.07520484 270.9393474 48.62890625 275.53125 C45.04056348 278.30296953 42.41361874 278.91273543 37.92407227 278.95117188 C36.80263321 278.96708374 35.68119415 278.98299561 34.52577209 278.99938965 C32.7225071 278.99969177 32.7225071 278.99969177 30.8828125 279 C29.63894272 279.00761353 28.39507294 279.01522705 27.11351013 279.02307129 C23.81296661 279.03662955 20.51282882 279.03448222 17.21228027 279.02868652 C15.19452033 279.03124605 13.17752557 279.04937886 11.15991211 279.07324219 C7.27551389 279.11606645 3.39242114 279.12512571 -0.4921875 279.125 C-1.69233994 279.14139526 -2.89249237 279.15779053 -4.12901306 279.17468262 C-13.42351787 279.09777532 -13.42351787 279.09777532 -17.05102539 276.24414062 C-20.64816853 272.03794737 -21.62175278 269.39108099 -21.61160278 263.84918213 C-21.61435211 262.69094437 -21.61710144 261.5327066 -21.61993408 260.33937073 C-21.60914825 258.43936562 -21.60914825 258.43936562 -21.59814453 256.50097656 C-21.59758025 255.15065011 -21.59789731 253.80032304 -21.59902954 252.44999695 C-21.59960339 248.78707369 -21.58784386 245.12428141 -21.57388163 241.46138859 C-21.56137968 237.63236721 -21.56020419 233.80334284 -21.55783081 229.9743042 C-21.55161447 222.72475995 -21.53520156 215.47527601 -21.51513183 208.22575831 C-21.49277764 199.97190121 -21.48178061 191.71804123 -21.47174096 183.4641614 C-21.45083547 166.48648938 -21.41565648 149.50887607 -21.37109375 132.53125 C-22.41892784 132.5512355 -22.41892784 132.5512355 -23.4879303 132.57162476 C-30.09311867 132.6921869 -36.69799703 132.78336743 -43.30403996 132.84212303 C-46.6998368 132.87334712 -50.09471947 132.91564934 -53.48999023 132.98388672 C-57.39946285 133.06196057 -61.30857414 133.09074206 -65.21875 133.1171875 C-66.42942642 133.14815521 -67.64010284 133.17912292 -68.88746643 133.21102905 C-75.33989836 133.21359263 -79.42460412 132.87189988 -84.10691833 128.21377563 C-86.83236765 124.5864006 -87.62298897 121.82554456 -87.64575195 117.30712891 C-87.65528397 116.26569733 -87.66481598 115.22426575 -87.67463684 114.15127563 C-87.67372543 113.0314328 -87.67281403 111.91158997 -87.671875 110.7578125 C-87.67616013 109.60131195 -87.68044525 108.4448114 -87.68486023 107.25326538 C-87.69060247 104.8071966 -87.69110458 102.36111074 -87.68676758 99.91503906 C-87.68361164 96.17743684 -87.70705531 92.44062914 -87.73242188 88.703125 C-87.7346953 86.32552183 -87.73539816 83.94791654 -87.734375 81.5703125 C-87.74818962 79.89662094 -87.74818962 79.89662094 -87.76228333 78.18911743 C-87.72894324 72.5810297 -87.64810543 68.31851114 -84.37109375 63.53125 C-80.08553201 59.66379185 -77.71009164 58.40492938 -72.00341797 58.41772461 C-70.88240692 58.41780014 -69.76139587 58.41787567 -68.60641479 58.41795349 C-67.39180573 58.42311478 -66.17719666 58.42827606 -64.92578125 58.43359375 C-63.68563263 58.4350087 -62.44548401 58.43642365 -61.16775513 58.43788147 C-57.86991242 58.44253904 -54.57211829 58.45152561 -51.27429199 58.46258545 C-47.90942988 58.47281269 -44.54456067 58.47738191 -41.1796875 58.48242188 C-34.57680382 58.49346731 -27.97395276 58.51021753 -21.37109375 58.53125 C-21.3810865 57.67133705 -21.3810865 57.67133705 -21.39128113 56.79405212 C-21.45783877 50.80782703 -21.50297892 44.8217077 -21.53588867 38.83520508 C-21.55094116 36.60339078 -21.57138773 34.3716059 -21.59741211 32.13989258 C-21.63395063 28.92521896 -21.6508559 25.71093772 -21.6640625 22.49609375 C-21.67954636 21.50415512 -21.69503021 20.51221649 -21.71098328 19.49021912 C-21.71237089 13.73111052 -21.38744029 9.51010576 -18.37109375 4.53125 C-13.10741554 -0.71060489 -6.97847714 -0.0491285 0 0 Z M-8.37109375 13.53125 C-8.37109375 32.67125 -8.37109375 51.81125 -8.37109375 71.53125 C-29.82109375 71.53125 -51.27109375 71.53125 -73.37109375 71.53125 C-73.37109375 87.37125 -73.37109375 103.21125 -73.37109375 119.53125 C-51.92109375 119.53125 -30.47109375 119.53125 -8.37109375 119.53125 C-8.37109375 167.71125 -8.37109375 215.89125 -8.37109375 265.53125 C7.46890625 265.53125 23.30890625 265.53125 39.62890625 265.53125 C39.62890625 217.35125 39.62890625 169.17125 39.62890625 119.53125 C61.40890625 119.53125 83.18890625 119.53125 105.62890625 119.53125 C105.62890625 103.69125 105.62890625 87.85125 105.62890625 71.53125 C83.84890625 71.53125 62.06890625 71.53125 39.62890625 71.53125 C39.62890625 52.39125 39.62890625 33.25125 39.62890625 13.53125 C23.78890625 13.53125 7.94890625 13.53125 -8.37109375 13.53125 Z " fill="#010000" transform="translate(202.37109375,74.46875)"/>
<path d="M0 0 C7.59 0 15.18 0 23 0 C23 18.81 23 37.62 23 57 C45.11 57 67.22 57 90 57 C90 72.84 90 88.68 90 105 C68.22 105 46.44 105 24 105 C24 153.18 24 201.36 24 251 C16.08 251 8.16 251 0 251 C0 168.17 0 85.34 0 0 Z " fill="#FDBD47" transform="translate(218,89)"/>
</svg>
